<svg xmlns="http://www.w3.org/2000/svg" version="1.1" xmlns:xlink="http://www.w3.org/1999/xlink" width="1000" height="1000"><g clip-path="url(#SvgjsClipPath1042)"><rect width="1000" height="1000" fill="#6c4add"></rect><g transform="matrix(10.869565217391305,0,0,10.869565217391305,0,0)"><svg xmlns="http://www.w3.org/2000/svg" version="1.1" xmlns:xlink="http://www.w3.org/1999/xlink" width="92" height="92"><svg width="92" height="92" viewBox="0 0 92 92" fill="none" xmlns="http://www.w3.org/2000/svg">
<rect x="15.3333" y="17.037" width="61.3333" height="57.9259" fill="white"></rect>
<path fill-rule="evenodd" clip-rule="evenodd" d="M17.25 11.5C15.725 11.5 14.2625 12.1058 13.1841 13.1841C12.1058 14.2625 11.5 15.725 11.5 17.25V74.75C11.5 76.275 12.1058 77.7375 13.1841 78.8159C14.2625 79.8942 15.725 80.5 17.25 80.5H74.75C76.275 80.5 77.7375 79.8942 78.8159 78.8159C79.8942 77.7375 80.5 76.275 80.5 74.75V17.25C80.5 15.725 79.8942 14.2625 78.8159 13.1841C77.7375 12.1058 76.275 11.5 74.75 11.5H17.25ZM61.3333 30.6667H55.5833V61.3333H61.3333V30.6667ZM65.1667 36.4167H70.9167V44.0833H72.8333V47.9167H70.9167V55.5833H65.1667V36.4167ZM30.6667 61.3333H36.4167V30.6667H30.6667V61.3333ZM26.8333 55.5833H21.0833V47.9167H19.1667V44.0833H21.0833V36.4167H26.8333V55.5833ZM40.25 47.9167H51.75V44.0833H40.25V47.9167Z" fill="#6C4ADD"></path>
</svg></svg></g></g><defs><clipPath id="SvgjsClipPath1042"><rect width="1000" height="1000" x="0" y="0" rx="500" ry="500"></rect></clipPath></defs></svg>